<svg width="1680" height="512" viewBox="0 0 1680 512" fill="none" xmlns="http://www.w3.org/2000/svg">
<path fill-rule="evenodd" clip-rule="evenodd" d="M577.808 169.145H587.696C594.443 169.145 599.912 174.615 599.912 181.362V192.929C599.912 193.287 600.203 193.578 600.562 193.578C606.189 183.624 613.765 176.385 623.289 171.86C632.813 167.335 643.094 165.073 654.133 165.073C666.038 165.073 676.752 167.279 686.276 171.69C695.8 176.102 703.917 182.153 710.627 189.845C717.337 197.537 722.423 206.586 725.886 216.992C729.35 227.399 731.081 238.597 731.081 250.587C731.081 262.577 729.241 273.776 725.562 284.182C721.882 294.589 716.741 303.638 710.14 311.33C703.538 319.021 695.583 325.073 686.276 329.484C676.968 333.896 666.795 336.102 655.756 336.102C648.397 336.102 641.904 335.31 636.276 333.726C630.648 332.143 625.67 330.106 621.341 327.618C617.012 325.129 613.332 322.471 610.302 319.643C607.271 316.816 604.782 314.044 602.834 311.33C602.296 311.33 601.86 311.766 601.86 312.304V394.49C601.86 402.724 595.185 409.399 586.951 409.399H577.808C569.574 409.399 562.899 402.724 562.899 394.49V184.054C562.899 175.82 569.574 169.145 577.808 169.145ZM692.12 250.587C692.12 244.253 691.092 238.145 689.036 232.263C686.979 226.381 683.949 221.178 679.945 216.653C675.94 212.129 671.124 208.509 665.497 205.794C659.869 203.079 653.484 201.722 646.341 201.722C639.198 201.722 632.813 203.079 627.185 205.794C621.557 208.509 616.741 212.129 612.737 216.653C608.733 221.178 605.702 226.381 603.646 232.263C601.59 238.145 600.562 244.253 600.562 250.587C600.562 256.922 601.59 263.03 603.646 268.912C605.702 274.794 608.733 279.997 612.737 284.522C616.741 289.046 621.557 292.666 627.185 295.38C632.813 298.095 639.198 299.453 646.341 299.453C653.484 299.453 659.869 298.095 665.497 295.38C671.124 292.666 675.94 289.046 679.945 284.522C683.949 279.997 686.979 274.794 689.036 268.912C691.092 263.03 692.12 256.922 692.12 250.587ZM787.224 169.145H798.381C805.503 169.145 811.276 174.919 811.276 182.04V194.286C811.276 194.645 811.567 194.935 811.925 194.935C816.254 185.434 822.423 178.081 830.432 172.878C838.44 167.675 847.64 165.073 858.029 165.073C860.41 165.073 862.737 165.299 865.01 165.752C869.068 166.56 871.99 170.121 871.99 174.259L871.99 196.6C871.99 201.093 868.348 204.735 863.855 204.735C863.371 204.735 862.888 204.692 862.412 204.606C859.274 204.041 856.189 203.758 853.159 203.758C844.068 203.758 836.763 205.511 831.243 209.018C825.724 212.524 821.503 216.54 818.581 221.065C815.659 225.589 813.711 230.114 812.737 234.638C811.763 239.163 811.276 242.556 811.276 244.819V317.12C811.276 325.354 804.601 332.029 796.367 332.029H787.224C778.99 332.029 772.315 325.354 772.315 317.12V184.054C772.315 175.82 778.99 169.145 787.224 169.145ZM919.042 169.145H928.185C936.419 169.145 943.094 175.82 943.094 184.054V317.12C943.094 325.354 936.419 332.029 928.185 332.029H919.042C910.808 332.029 904.133 325.354 904.133 317.12V184.054C904.133 175.82 910.808 169.145 919.042 169.145ZM898.614 113.833C898.614 107.272 900.94 101.56 905.594 96.6958C910.248 91.8318 916.146 89.3999 923.289 89.3999C930.432 89.3999 936.438 91.7187 941.309 96.3564C946.179 100.994 948.614 106.819 948.614 113.833C948.614 120.846 946.179 126.671 941.309 131.309C936.438 135.946 930.432 138.265 923.289 138.265C916.146 138.265 910.248 135.833 905.594 130.969C900.94 126.105 898.614 120.393 898.614 113.833ZM1066.47 206.369C1058.57 200.556 1051.53 197.65 1045.37 197.65C1040.17 197.65 1035.09 199.007 1030.11 201.722C1025.13 204.437 1022.64 208.848 1022.64 214.956C1022.64 219.933 1024.7 223.553 1028.81 225.815C1032.92 228.078 1038.12 230.001 1044.39 231.584C1050.67 233.168 1057.43 234.808 1064.69 236.505C1071.94 238.201 1078.7 240.803 1084.98 244.309C1091.25 247.816 1096.45 252.623 1100.56 258.732C1104.67 264.84 1106.73 273.21 1106.73 283.843C1106.73 293.571 1104.73 301.771 1100.72 308.445C1096.72 315.119 1091.53 320.492 1085.14 324.564C1078.75 328.636 1071.56 331.577 1063.55 333.387C1055.54 335.197 1047.53 336.102 1039.52 336.102C1027.4 336.102 1016.25 334.292 1006.08 330.672C1002.1 329.255 997.317 326.406 991.74 322.127L991.74 322.126C985.208 317.114 983.976 307.755 988.989 301.223C989.416 300.666 989.881 300.141 990.382 299.65L994.424 295.69C1000 290.225 1008.85 289.989 1014.71 295.149C1017.07 297.23 1019.12 298.834 1020.85 299.962C1026.59 303.694 1033.57 305.561 1041.8 305.561C1044.61 305.561 1047.53 305.221 1050.56 304.543C1053.59 303.864 1056.41 302.733 1059 301.149C1061.6 299.566 1063.71 297.586 1065.33 295.211C1066.96 292.835 1067.77 290.064 1067.77 286.897C1067.77 281.241 1065.71 277.056 1061.6 274.341C1057.49 271.627 1052.29 269.421 1046.02 267.724C1039.74 266.027 1032.98 264.444 1025.72 262.973C1018.47 261.503 1011.71 259.127 1005.43 255.847C999.155 252.567 993.96 247.986 989.848 242.104C985.735 236.222 983.679 228.078 983.679 217.671C983.679 208.622 985.464 200.761 989.036 194.087C992.607 187.413 997.315 181.927 1003.16 177.629C1009 173.33 1015.71 170.163 1023.29 168.127C1030.86 166.091 1038.55 165.073 1046.34 165.073C1056.73 165.073 1067.01 166.94 1077.19 170.672C1080.87 172.024 1084.98 174.527 1089.51 178.181L1089.51 178.181C1095.92 183.347 1096.93 192.733 1091.77 199.145C1091.34 199.678 1090.87 200.181 1090.37 200.65L1085.52 205.217C1080.28 210.145 1072.27 210.63 1066.47 206.369ZM1155.08 169.145H1162.28C1170.51 169.145 1177.19 175.82 1177.19 184.054V194.596C1181.3 186.904 1186.87 180.061 1194.56 174.066C1202.24 168.071 1212.57 165.073 1225.56 165.073C1250.02 165.073 1266.25 175.14 1274.26 195.275C1279.89 184.868 1286.93 177.233 1295.37 172.369C1303.81 167.505 1313.87 165.073 1325.56 165.073C1335.95 165.073 1344.72 166.883 1351.86 170.503C1359 174.122 1364.79 179.099 1369.23 185.434C1373.67 191.768 1376.86 199.177 1378.81 207.661C1380.76 216.144 1381.73 225.25 1381.73 234.978V317.12C1381.73 325.354 1375.06 332.029 1366.82 332.029H1357.68C1349.44 332.029 1342.77 325.354 1342.77 317.12V239.728C1342.77 234.751 1342.34 229.944 1341.47 225.306C1340.61 220.669 1339.09 216.597 1336.93 213.09C1334.76 209.584 1331.84 206.812 1328.16 204.776C1324.48 202.74 1319.72 201.722 1313.87 201.722C1307.81 201.722 1302.67 202.91 1298.45 205.285C1294.23 207.661 1290.77 210.828 1288.06 214.787C1285.36 218.746 1283.41 223.27 1282.22 228.36C1281.03 233.451 1280.43 238.597 1280.43 243.8V317.12C1280.43 325.354 1273.76 332.029 1265.52 332.029H1256.38C1248.15 332.029 1241.47 325.354 1241.47 317.12V234.978C1241.47 224.797 1239.41 216.71 1235.3 210.715C1231.19 204.72 1224.37 201.722 1214.85 201.722C1208.35 201.722 1202.89 202.853 1198.45 205.116C1194.01 207.378 1190.33 210.432 1187.41 214.278C1184.49 218.124 1182.38 222.535 1181.08 227.512C1179.78 232.489 1179.13 237.692 1179.13 243.122V317.12C1179.13 325.354 1172.46 332.029 1164.22 332.029H1155.08C1146.85 332.029 1140.17 325.354 1140.17 317.12V184.054C1140.17 175.82 1146.85 169.145 1155.08 169.145ZM1444.69 169.145H1453.83C1462.07 169.145 1468.74 175.82 1468.74 184.054V317.12C1468.74 325.354 1462.07 332.029 1453.83 332.029H1444.69C1436.46 332.029 1429.78 325.354 1429.78 317.12V184.054C1429.78 175.82 1436.46 169.145 1444.69 169.145ZM1424.26 113.833C1424.26 107.272 1426.59 101.56 1431.24 96.6958C1435.9 91.8318 1441.8 89.3999 1448.94 89.3999C1456.08 89.3999 1462.09 91.7187 1466.96 96.3564C1471.83 100.994 1474.26 106.819 1474.26 113.833C1474.26 120.846 1471.83 126.671 1466.96 131.309C1462.09 135.946 1456.08 138.265 1448.94 138.265C1441.8 138.265 1435.9 135.833 1431.24 130.969C1426.59 126.105 1424.26 120.393 1424.26 113.833ZM1614.86 209.093C1613.25 207.838 1611.84 206.852 1610.63 206.134C1605.65 203.193 1600.56 201.722 1595.37 201.722C1588.22 201.722 1581.84 203.079 1576.21 205.794C1570.58 208.509 1565.77 212.129 1561.76 216.653C1557.76 221.178 1554.73 226.381 1552.67 232.263C1550.62 238.145 1549.59 244.253 1549.59 250.587C1549.59 256.922 1550.62 263.03 1552.67 268.912C1554.73 274.794 1557.76 279.997 1561.76 284.522C1565.77 289.046 1570.58 292.666 1576.21 295.38C1581.84 298.095 1588.22 299.453 1595.37 299.453C1601.43 299.453 1607.06 298.152 1612.25 295.55C1613.3 295.024 1614.44 294.309 1615.67 293.405L1615.67 293.405C1621.87 288.846 1630.52 289.756 1635.64 295.504L1641.56 302.158C1646.77 308.014 1646.25 316.987 1640.39 322.2C1639.68 322.839 1638.89 323.404 1638.06 323.885C1632.98 326.826 1627.83 329.202 1622.64 331.011C1617.45 332.821 1612.47 334.122 1607.7 334.914C1602.94 335.706 1598.83 336.102 1595.37 336.102C1583.68 336.102 1572.64 334.065 1562.25 329.993C1551.86 325.921 1542.88 320.152 1535.3 312.687C1527.73 305.221 1521.72 296.229 1517.28 285.709C1512.85 275.19 1510.63 263.482 1510.63 250.587C1510.63 237.692 1512.85 225.985 1517.28 215.465C1521.72 204.946 1527.73 195.953 1535.3 188.488C1542.88 181.022 1551.86 175.253 1562.25 171.181C1572.64 167.109 1583.68 165.073 1595.37 165.073C1605.32 165.073 1615.33 167.053 1625.4 171.012C1629.24 172.52 1633.76 175.218 1638.98 179.104V179.104C1645.58 184.025 1646.94 193.366 1642.02 199.968C1641.66 200.458 1641.26 200.924 1640.84 201.366L1634.82 207.659C1629.52 213.195 1620.89 213.815 1614.86 209.093Z" fill="#040D3A"/>
<g clip-path="url(#clip0)">
<path fill-rule="evenodd" clip-rule="evenodd" d="M456.23 264.23L425.949 233.949C423.549 231.549 422.2 228.293 422.2 224.898V187.853C422.2 153.619 418.636 141.205 411.942 128.689C405.249 116.174 395.427 106.351 382.911 99.6579C370.396 92.9645 357.981 89.4 323.747 89.4H274.781C273.367 89.4 272.221 88.2539 272.221 86.84C272.221 86.1611 272.49 85.5099 272.97 85.0298L303.251 54.749C305.652 52.3486 308.907 51 312.302 51L329.329 51C374.975 51 391.527 55.7527 408.215 64.6772C424.902 73.6017 437.999 86.6981 446.923 103.386C455.848 120.073 460.6 136.625 460.6 182.271V262.42C460.6 263.834 459.454 264.98 458.04 264.98C457.361 264.98 456.71 264.71 456.23 264.23Z" fill="#E55737"/>
<path fill-rule="evenodd" clip-rule="evenodd" d="M247.37 456.23L277.651 425.949C280.052 423.549 283.307 422.2 286.702 422.2H323.747C357.981 422.2 370.395 418.636 382.911 411.942C395.427 405.249 405.249 395.427 411.942 382.911C418.636 370.396 422.2 357.981 422.2 323.747V274.781C422.2 273.367 423.346 272.221 424.76 272.221C425.439 272.221 426.09 272.49 426.57 272.971L456.851 303.251C459.252 305.652 460.6 308.907 460.6 312.302V329.329C460.6 374.975 455.847 391.527 446.923 408.215C437.998 424.902 424.902 437.999 408.215 446.923C391.527 455.848 374.975 460.6 329.329 460.6H249.18C247.767 460.6 246.62 459.454 246.62 458.04C246.62 457.361 246.89 456.71 247.37 456.23Z" fill="#F6C943"/>
<path fill-rule="evenodd" clip-rule="evenodd" d="M55.3702 247.37L85.651 277.651C88.0514 280.052 89.4 283.307 89.4 286.702V323.747C89.4 357.981 92.9645 370.396 99.6579 382.911C106.351 395.427 116.174 405.249 128.689 411.942C141.205 418.636 153.619 422.2 187.853 422.2H236.82C238.234 422.2 239.38 423.346 239.38 424.76C239.38 425.439 239.11 426.09 238.63 426.57L208.349 456.851C205.949 459.252 202.693 460.6 199.298 460.6H182.271C136.625 460.6 120.073 455.848 103.386 446.923C86.6981 437.999 73.6017 424.902 64.6772 408.215C55.7527 391.527 51 374.975 51 329.329V249.181C51 247.767 52.1462 246.621 53.56 246.621C54.239 246.621 54.8901 246.89 55.3702 247.37Z" fill="#7B8FEC"/>
<path fill-rule="evenodd" clip-rule="evenodd" d="M264.23 55.3702L233.949 85.651C231.549 88.0515 228.293 89.4 224.898 89.4H187.853C153.619 89.4 141.205 92.9645 128.689 99.6579C116.174 106.351 106.351 116.174 99.6579 128.689C92.9645 141.205 89.4 153.619 89.4 187.853V236.82C89.4 238.234 88.2539 239.38 86.84 239.38C86.1611 239.38 85.5099 239.11 85.0298 238.63L54.749 208.349C52.3486 205.949 51 202.693 51 199.298L51 182.271C51 136.625 55.7527 120.073 64.6772 103.386C73.6017 86.6981 86.6981 73.6017 103.386 64.6772C120.073 55.7527 136.625 51 182.271 51L262.42 51C263.834 51 264.98 52.1462 264.98 53.56C264.98 54.239 264.71 54.8901 264.23 55.3702Z" fill="#D77EE9"/>
<path fill-rule="evenodd" clip-rule="evenodd" d="M392.271 200.463L350.981 161.001C348.25 158.27 345.057 156.286 341.653 155.047C338.838 153.982 335.787 153.4 332.6 153.4H210.752C209.338 153.4 208.192 152.254 208.192 150.84C208.192 150.161 208.462 149.509 208.942 149.029L239.252 118.745C241.652 116.347 244.906 115 248.299 115H345.4C373.677 115 396.6 137.923 396.6 166.2V198.612C396.6 200.026 395.454 201.172 394.04 201.172C393.381 201.172 392.748 200.918 392.271 200.463Z" fill="#E55737"/>
<path fill-rule="evenodd" clip-rule="evenodd" d="M311.137 392.303L350.599 351.013C353.33 348.282 355.315 345.089 356.554 341.685C357.618 338.87 358.2 335.819 358.2 332.632V210.784C358.2 209.37 359.346 208.224 360.76 208.224C361.44 208.224 362.091 208.494 362.571 208.974L392.855 239.284C395.253 241.684 396.6 244.938 396.6 248.331V345.432C396.6 373.709 373.677 396.632 345.4 396.632H312.988C311.574 396.632 310.428 395.486 310.428 394.072C310.428 393.413 310.682 392.78 311.137 392.303Z" fill="#F6C943"/>
<path fill-rule="evenodd" clip-rule="evenodd" d="M119.329 311.137L160.619 350.599C163.35 353.33 166.543 355.314 169.947 356.553C172.762 357.617 175.813 358.2 179 358.2H300.848C302.262 358.2 303.408 359.346 303.408 360.76C303.408 361.439 303.138 362.091 302.658 362.571L272.348 392.855C269.948 395.253 266.694 396.6 263.301 396.6H166.2C137.923 396.6 115 373.677 115 345.4V312.988C115 311.574 116.146 310.428 117.56 310.428C118.219 310.428 118.852 310.682 119.329 311.137Z" fill="#7B8FEC"/>
<path fill-rule="evenodd" clip-rule="evenodd" d="M200.463 119.329L161.001 160.619C158.27 163.35 156.286 166.543 155.047 169.947C153.982 172.762 153.4 175.813 153.4 179V300.848C153.4 302.262 152.254 303.408 150.84 303.408C150.161 303.408 149.509 303.138 149.029 302.658L118.745 272.348C116.347 269.948 115 266.694 115 263.301V166.2C115 137.923 137.923 115 166.2 115H198.612C200.026 115 201.172 116.146 201.172 117.56C201.172 118.219 200.918 118.852 200.463 119.329Z" fill="#D77EE9"/>
<path d="M494.613 317.389L493.27 169.728L470.45 169.728L470.45 293.727L212.201 40.8306L336.368 40.8307L336.368 17.991L188.037 17.1681L187.985 17.1168L141.608 64.4752C120.644 85.8831 124.27 123.598 149.691 148.492L198.175 195.971C223.596 220.865 261.378 223.7 282.343 202.293L312.817 171.173L337.976 195.811L307.502 226.93C286.538 248.338 290.163 286.053 315.585 310.947L364.069 358.426C389.49 383.32 427.272 386.156 448.236 364.748L494.613 317.389Z" fill="#FC60A8"/>
</g>
<path d="M951.769 366C956.958 366 961.238 367.837 964.871 371.512C968.503 375.187 970.319 379.65 970.319 384.769V449.869H904.55C899.361 449.869 895.08 448.031 891.448 444.356C887.816 440.681 886 436.219 886 431.1V400.125H954.882V384.769C954.882 383.85 954.623 383.194 953.974 382.538C953.325 381.881 952.677 381.619 951.769 381.619H886V366H951.769ZM954.882 434.25V415.744H901.437V431.1C901.437 432.019 901.696 432.675 902.345 433.331C902.994 433.987 903.642 434.25 904.55 434.25H954.882V434.25ZM1103.67 366H1120.15L1089.01 449.869H1076.43L1048.54 387.525L1022.21 449.869L1021.95 449.737L1022.08 449.869H1009.62L977.064 366H993.409L1015.85 421.65L1039.72 366H1057.36L1082.66 421.65L1103.67 366ZM1190.85 366C1196.03 366 1200.31 367.837 1203.95 371.512C1207.58 375.187 1209.4 379.65 1209.4 384.769V415.744H1140.51V431.1C1140.51 432.019 1140.77 432.675 1141.42 433.331C1142.07 433.987 1142.72 434.25 1143.63 434.25H1209.4V449.869H1143.63C1138.44 449.869 1134.16 448.031 1130.52 444.356C1126.89 440.681 1125.08 436.219 1125.08 431.1V384.769C1125.08 379.519 1126.89 375.187 1130.52 371.512C1134.16 367.837 1138.57 366 1143.63 366H1190.85V366ZM1140.51 400.125H1193.96V384.769C1193.96 383.85 1193.7 383.194 1193.05 382.538C1192.4 381.881 1191.75 381.619 1190.85 381.619H1143.63C1142.72 381.619 1142.07 381.881 1141.42 382.538C1140.77 383.194 1140.51 383.85 1140.51 384.769V400.125V400.125ZM1307.85 384.9V388.05H1292.42V384.9C1292.42 383.981 1292.16 383.325 1291.51 382.669C1290.86 382.012 1290.21 381.75 1289.3 381.75H1242.09C1241.18 381.75 1240.53 382.012 1239.88 382.669C1239.23 383.325 1238.97 383.981 1238.97 384.9V397.106C1238.97 398.025 1239.23 398.681 1239.88 399.337C1240.53 399.994 1241.18 400.256 1242.09 400.256H1289.3C1294.49 400.256 1298.77 402.094 1302.41 405.769C1306.04 409.444 1307.85 413.906 1307.85 419.025V431.231C1307.85 436.481 1306.04 440.812 1302.41 444.487C1298.77 448.162 1294.36 450 1289.3 450H1242.09C1236.9 450 1232.62 448.162 1228.98 444.487C1225.35 440.812 1223.54 436.35 1223.54 431.231V428.081H1238.97V431.231C1238.97 432.15 1239.23 432.806 1239.88 433.462C1240.53 434.119 1241.18 434.381 1242.09 434.381H1289.3C1290.21 434.381 1290.86 434.119 1291.51 433.462C1292.16 432.806 1292.42 432.15 1292.42 431.231V419.025C1292.42 418.106 1292.16 417.45 1291.51 416.794C1290.86 416.137 1290.21 415.875 1289.3 415.875H1242.09C1236.9 415.875 1232.62 414.037 1228.98 410.362C1225.35 406.687 1223.54 402.225 1223.54 397.106V384.9C1223.54 379.65 1225.35 375.319 1228.98 371.644C1232.62 367.969 1237.03 366.131 1242.09 366.131H1289.3C1294.49 366.131 1298.77 367.969 1302.41 371.644C1306.04 375.187 1307.85 379.65 1307.85 384.9ZM1340.54 366H1387.76C1392.95 366 1397.23 367.837 1400.86 371.512C1404.5 375.187 1406.31 379.65 1406.31 384.769V431.1C1406.31 436.35 1404.5 440.681 1400.86 444.356C1397.23 448.031 1392.82 449.869 1387.76 449.869H1340.54C1335.35 449.869 1331.07 448.031 1327.44 444.356C1323.81 440.681 1321.99 436.219 1321.99 431.1V384.769C1321.99 379.519 1323.81 375.187 1327.44 371.512C1331.07 367.837 1335.48 366 1340.54 366V366ZM1387.76 381.619H1340.54C1339.64 381.619 1338.99 381.881 1338.34 382.538C1337.69 383.194 1337.43 383.85 1337.43 384.769V431.1C1337.43 432.019 1337.69 432.675 1338.34 433.331C1338.99 433.987 1339.64 434.25 1340.54 434.25H1387.76C1388.67 434.25 1389.32 433.987 1389.97 433.331C1390.62 432.675 1390.88 432.019 1390.88 431.1V384.769C1390.88 383.85 1390.62 383.194 1389.97 382.538C1389.32 382.013 1388.67 381.619 1387.76 381.619ZM1527.21 366C1532.4 366 1536.68 367.837 1540.31 371.512C1543.95 375.187 1545.76 379.65 1545.76 384.769V449.869H1530.46V384.769C1530.46 383.85 1530.2 383.194 1529.55 382.538C1528.9 381.881 1528.12 381.619 1527.21 381.619H1494.52C1493.62 381.619 1492.97 381.881 1492.32 382.538C1491.67 383.194 1491.41 383.85 1491.41 384.769V449.869H1475.97V384.769C1475.97 383.85 1475.71 383.194 1475.06 382.538C1474.42 381.881 1473.77 381.619 1472.86 381.619H1440.04C1439.13 381.619 1438.48 381.881 1437.83 382.538C1437.19 383.194 1436.93 383.85 1436.93 384.769V449.869H1421.49V366H1527.21ZM1626.45 366C1631.64 366 1635.92 367.837 1639.55 371.512C1643.18 375.187 1645 379.65 1645 384.769V415.744H1576.12V431.1C1576.12 432.019 1576.38 432.675 1577.03 433.331C1577.67 433.987 1578.32 434.25 1579.23 434.25H1645V449.869H1579.23C1574.04 449.869 1569.76 448.031 1566.13 444.356C1562.5 440.681 1560.68 436.219 1560.68 431.1V384.769C1560.68 379.519 1562.5 375.187 1566.13 371.512C1569.76 367.837 1574.17 366 1579.23 366H1626.45V366ZM1576.12 400.125H1629.56V384.769C1629.56 383.85 1629.3 383.194 1628.66 382.538C1628.01 381.881 1627.36 381.619 1626.45 381.619H1579.23C1578.32 381.619 1577.67 381.881 1577.03 382.538C1576.38 383.194 1576.12 383.85 1576.12 384.769V400.125V400.125Z" fill="#494368"/>
<defs>
<clipPath id="clip0">
<rect width="512" height="512" fill="white"/>
</clipPath>
</defs>
</svg>
